# xmcd
#
# Track frame offsets:
#	187
#	11947
#	22927
#	35977
#	50532
#	62592
#	74767
#	85697
#	97800
#	107295
#
# Disc length: 1594 seconds
#
# Revision: 2
# Processed by: cddbd v1.5.1PL2 Copyright (c) Steve Scherf et al.
# Submitted via: audiograbber 1.83.01
#
DISCID=7c06380a
DTITLE=JVC - JVC031
DYEAR=1992
DGENRE=Karaoke Pop
TTITLE0=Chuck Berry - Maybellene
TTITLE1=Chuck Berry - Roll Over Beethoven
TTITLE2=Chuck Berry - School Days
TTITLE3=Chuck Berry - Sweet Little Sixteen
TTITLE4=Chuck Berry - Johnny B. Goode
TTITLE5=Fats Domino - Ain't That A Shame
TTITLE6=Fats Domino - Blueberry Hill
TTITLE7=Little Richard - Tutti Frutti
TTITLE8=Jerry Lee Lewis - Great Balls Of Fire
TTITLE9=Jerry Lee Lewis - Whole Lotta Shakin' Goin' On
EXTD=
EXTT0=
EXTT1=
EXTT2=
EXTT3=
EXTT4=
EXTT5=
EXTT6=
EXTT7=
EXTT8=
EXTT9=
PLAYORDER=
